<?xml version="1.0" encoding="utf-8"?>
<!-- Generator: Adobe Illustrator 18.0.0, SVG Export Plug-In . SVG Version: 6.00 Build 0)  -->
<!DOCTYPE svg PUBLIC "-//W3C//DTD SVG 1.1//EN" "http://www.w3.org/Graphics/SVG/1.1/DTD/svg11.dtd">
<svg version="1.1" id="Capa_1" xmlns="http://www.w3.org/2000/svg" xmlns:xlink="http://www.w3.org/1999/xlink" x="0px" y="0px"
	 viewBox="187.3 187.3 96 96" enable-background="new 187.3 187.3 96 96" xml:space="preserve">
<g>
	<path fill="#FFFFFF" d="M245.8,208.2h-27.2c-1.8,0-3.3,1.5-3.3,3.3V259c0,1.8,1.5,3.3,3.3,3.3H252c1.8,0,3.3-1.5,3.3-3.3v-40.5
		L245.8,208.2z M246.6,213.2l4.1,4.5h-4.1V213.2z M252.5,259c0,0.3-0.2,0.5-0.5,0.5h-33.4c-0.3,0-0.5-0.2-0.5-0.5v-47.5
		c0-0.3,0.2-0.5,0.5-0.5h25.2v8.1c0,0.8,0.6,1.4,1.4,1.4h7.3V259z M223,223.1h23.7c0.6,0,1,0.5,1,1c0,0.6-0.5,1-1,1H223
		c-0.6,0-1-0.5-1-1C222,223.5,222.4,223.1,223,223.1z M247.7,231.1c0,0.6-0.5,1-1,1H223c-0.6,0-1-0.5-1-1s0.5-1,1-1h23.7
		C247.2,230.1,247.7,230.5,247.7,231.1z M247.7,237.9c0,0.6-0.5,1-1,1H223c-0.6,0-1-0.5-1-1c0-0.6,0.5-1,1-1h23.7
		C247.2,236.9,247.7,237.3,247.7,237.9z M247.7,244.8c0,0.6-0.5,1-1,1H223c-0.6,0-1-0.5-1-1s0.5-1,1-1h23.7
		C247.2,243.8,247.7,244.2,247.7,244.8z"/>
</g>
</svg>
