<?xml version="1.0" encoding="utf-8"?>
<!-- Generator: Adobe Illustrator 18.0.0, SVG Export Plug-In . SVG Version: 6.00 Build 0)  -->
<!DOCTYPE svg PUBLIC "-//W3C//DTD SVG 1.1//EN" "http://www.w3.org/Graphics/SVG/1.1/DTD/svg11.dtd">
<svg version="1.1" id="Layer_1" xmlns="http://www.w3.org/2000/svg" xmlns:xlink="http://www.w3.org/1999/xlink" x="0px" y="0px"
	 viewBox="0 0 96 96" enable-background="new 0 0 96 96" xml:space="preserve">
<path fill="#FFFFFF" d="M71.9,51.2c-0.2,0.2-0.4,0.3-0.7,0.3h-0.1c-0.2,0-0.5-0.1-0.7-0.2L49,33.3l-21.5,18
	c-0.2,0.2-0.5,0.3-0.7,0.2c-0.2,0-0.5-0.2-0.7-0.3l-1.9-2.3c-0.3-0.4-0.3-1.1,0.1-1.4l22.3-18.7c1.3-1.1,3.4-1.1,4.7,0l7.6,6.4v-6.1
	c0-0.6,0.4-1,1-1h6c0.6,0,1,0.4,1,1v12.7l6.8,5.7c0.4,0.3,0.5,1,0.1,1.4L71.9,51.2L71.9,51.2z M66.9,66c0,1.1-0.9,2-2,2H53V56H45v12
	H33.1c-1.1,0-2-0.9-2-2V51c0-0.1,0-0.1,0-0.2L49,36.1l17.8,14.8c0,0.1,0,0.1,0,0.2C66.9,51,66.9,66,66.9,66z"/>
</svg>
