<?xml version="1.0" encoding="utf-8"?>
<!-- Generator: Adobe Illustrator 18.0.0, SVG Export Plug-In . SVG Version: 6.00 Build 0)  -->
<!DOCTYPE svg PUBLIC "-//W3C//DTD SVG 1.1//EN" "http://www.w3.org/Graphics/SVG/1.1/DTD/svg11.dtd">
<svg version="1.1" id="Capa_1" xmlns="http://www.w3.org/2000/svg" xmlns:xlink="http://www.w3.org/1999/xlink" x="0px" y="0px"
	 viewBox="258 348 96 96" enable-background="new 258 348 96 96" xml:space="preserve">
<g id="Track__x2F__Note">
	<path fill="#FFFFFF" d="M297.8,373.8c-3.6,0.6-4.3,2.9-4.3,5.4v27.5c0,2-1.6,3.5-3.6,3.5c0,0,0,0,0,0c-4.9,0-8.9,2.8-8.9,6.2
		c0,3.4,4,6.2,8.9,6.2s8.9-2.8,8.9-6.2c0-0.3,0-0.6-0.1-0.9h0.1v-22.8c0-1.7,1.3-3.2,3-3.4l19.9-2.8c2.1-0.3,4,1.3,4,3.4v13.3
		c0,2-1.6,3.5-3.6,3.5c0,0,0,0,0,0c-4.9,0-8.9,2.8-8.9,6.2c0,3.5,4,6.2,8.9,6.2c4.8,0,8.6-2.6,8.9-5.9l0,0v-40.2
		c0-2.1-1.9-3.7-4-3.4L297.8,373.8z"/>
</g>
</svg>
