<?xml version="1.0" encoding="utf-8"?>
<!-- Generator: Adobe Illustrator 18.0.0, SVG Export Plug-In . SVG Version: 6.00 Build 0)  -->
<!DOCTYPE svg PUBLIC "-//W3C//DTD SVG 1.1//EN" "http://www.w3.org/Graphics/SVG/1.1/DTD/svg11.dtd">
<svg version="1.1" id="Capa_1" xmlns="http://www.w3.org/2000/svg" xmlns:xlink="http://www.w3.org/1999/xlink" x="0px" y="0px"
	 viewBox="227.4 227.4 96 96" enable-background="new 227.4 227.4 96 96" xml:space="preserve">
<g>
	<path fill="#FFFFFF" d="M297.2,256h-43.7c-1.8,0-3.2,1.4-3.2,3.2v32.5c0,1.8,1.4,3.2,3.2,3.2h43.7c1.8,0,3.2-1.4,3.2-3.2v-32.5
		C300.4,257.4,299,256,297.2,256z M297.2,259.1v23.1l-6.3-5.7c-0.9-0.9-2.4-0.8-3.3,0.1l-6.3,6.3L268.9,268c-0.9-1.1-2.7-1.1-3.6,0
		l-11.7,13.6v-22.4H297.2z M283.7,267.5c0-2.4,2-4.4,4.4-4.4c2.4,0,4.4,2,4.4,4.4s-2,4.4-4.4,4.4
		C285.7,271.8,283.7,269.9,283.7,267.5z"/>
</g>
</svg>
